<?xml version="1.0" encoding="UTF-8" standalone="no"?>
<svg
   xmlns:dc="http://purl.org/dc/elements/1.1/"
   xmlns:cc="http://creativecommons.org/ns#"
   xmlns:rdf="http://www.w3.org/1999/02/22-rdf-syntax-ns#"
   xmlns:svg="http://www.w3.org/2000/svg"
   xmlns="http://www.w3.org/2000/svg"
   xmlns:sodipodi="http://sodipodi.sourceforge.net/DTD/sodipodi-0.dtd"
   xmlns:inkscape="http://www.inkscape.org/namespaces/inkscape"
   viewBox="0 0 96 96"
   enable-background="new 0 0 64 64"
   version="1.1"
   id="svg70"
   sodipodi:docname="icon.svg"
   width="96"
   height="96"
   inkscape:version="0.92.4 5da689c313, 2019-01-14"
   inkscape:export-filename="/home/alan/Projects/blog/public/icon.svg.png"
   inkscape:export-xdpi="192"
   inkscape:export-ydpi="192">
  <metadata
     id="metadata76">
    <rdf:RDF>
      <cc:Work
         rdf:about="">
        <dc:format>image/svg+xml</dc:format>
        <dc:type
           rdf:resource="http://purl.org/dc/dcmitype/StillImage" />
        <dc:title />
      </cc:Work>
    </rdf:RDF>
  </metadata>
  <defs
     id="defs74" />
  <sodipodi:namedview
     pagecolor="#ffffff"
     bordercolor="#666666"
     borderopacity="1"
     objecttolerance="10"
     gridtolerance="10"
     guidetolerance="10"
     inkscape:pageopacity="0"
     inkscape:pageshadow="2"
     inkscape:window-width="1920"
     inkscape:window-height="1030"
     id="namedview72"
     showgrid="false"
     inkscape:zoom="7.375"
     inkscape:cx="18.440678"
     inkscape:cy="48.271186"
     inkscape:window-x="0"
     inkscape:window-y="0"
     inkscape:window-maximized="1"
     inkscape:current-layer="svg70" />
  <rect
     style="opacity:1;fill:#8764b8;fill-opacity:1;stroke:none;stroke-width:2.00708556;stroke-miterlimit:4;stroke-dasharray:none;stroke-opacity:0.21134021"
     id="rect4586"
     width="96"
     height="96"
     x="0"
     y="2.998334e-08" />
  <path
     d="m 78.3,63.371186 c -0.1,-24.4 -20.8,-45 -45.2,-45.1 l -14.8,60 60,-14.9"
     id="path2"
     inkscape:connector-curvature="0"
     style="fill:#ffffff;fill-opacity:1" />
  <path
     d="m 70.5,65.271186 2.1,-0.4 c -1,-19 -14.6,-38.9 -41,-40.9 l -0.3,2 c 20.2,2.6 36.7,19 39.2,39.3"
     id="path4"
     inkscape:connector-curvature="0"
     style="fill:#8764b8;fill-opacity:1" />
  <path
     d="m 72.5,64.871186 5.7,-1.4 c 0.1,-24.4 -20.7,-45.2 -45.3,-45.2 l -1.4,5.7 c 23.5,2.2 38.8,17.6 41,40.9 z"
     id="path6"
     inkscape:connector-curvature="0"
     style="fill:#ffffff;fill-opacity:1" />
  <g
     id="g26"
     style="fill:#8764b8;fill-opacity:1"
     transform="translate(16,16.271186)">
    <path
       d="m 37.1,36.2 c 1.4,4.1 -0.8,8.5 -5,9.9 -4.2,1.4 -8.7,-0.8 -10,-4.9 -1.4,-4.1 0.8,-8.5 5,-9.9 4.1,-1.4 8.6,0.8 10,4.9"
       id="path16"
       inkscape:connector-curvature="0"
       style="fill:#8764b8;fill-opacity:1" />
    <path
       d="m 49.6,37 c 0.8,2.5 -0.5,5.1 -3,6 -2.5,0.8 -5.2,-0.5 -6,-3 -0.8,-2.5 0.5,-5.1 3,-6 2.4,-0.8 5.1,0.5 6,3"
       id="path18"
       inkscape:connector-curvature="0"
       style="fill:#8764b8;fill-opacity:1" />
    <path
       d="m 29,19 c 1.1,3.3 -0.7,7 -4.1,8.1 -3.4,1.1 -7.1,-0.7 -8.2,-4 -1.1,-3.3 0.7,-7 4.1,-8.1 3.4,-1.1 7.1,0.7 8.2,4"
       id="path20"
       inkscape:connector-curvature="0"
       style="fill:#8764b8;fill-opacity:1" />
    <path
       d="m 34.4,54 -9.7,2.4 c -0.9,-2.6 0.9,-5.7 3.5,-6.4 3.2,-0.8 5.3,1.5 6.2,4"
       id="path22"
       inkscape:connector-curvature="0"
       style="fill:#8764b8;fill-opacity:1" />
    <path
       d="m 19.6,47 c 1.2,3.4 -0.7,7.2 -4.2,8.3 -3.5,1.2 -7.3,-0.7 -8.5,-4.2 -1.2,-3.4 0.7,-7.2 4.2,-8.3 3.5,-1.1 7.3,0.8 8.5,4.2"
       id="path24"
       inkscape:connector-curvature="0"
       style="fill:#8764b8;fill-opacity:1" />
  </g>
  <path
     d="m 31.5,23.971186 c 5.3,0.1 10.6,1.1 15.6,3.1 5,1.9 9.7,4.9 13.5,8.8 3.8,3.8 6.8,8.5 8.8,13.5 2,5 3,10.3 3.1,15.6 -0.9,-5.2 -2.3,-10.3 -4.5,-15 -2.2,-4.7 -5.1,-9.1 -8.8,-12.7 -3.6,-3.7 -8,-6.6 -12.7,-8.7 -4.7,-2.3 -9.8,-3.7 -15,-4.6"
     id="path28"
     inkscape:connector-curvature="0"
     style="fill:#ffffff;fill-opacity:1" />
</svg>
